PathFileType	4	(X/Y/Z)	HSS_walk2.trc
DataRate	CameraRate	NumFrames	NumMarkers	Units	OrigDataRate	OrigDataStartFrame	OrigNumFrames
120.0	120.0	7	44	mm	120.0	370	984
Frame#	Time		R.Shoulder		Offset		L.Shoulder		R.Elbow		R.Wrist.Radial		R.Wrist		R.Hand		L.Elbow		L.Wrist.Radial		L.Wrist		L.Hand		R.Hip		V.Sacral		L.PSIS		L.Hip		R.Thigh.Upper		R.Thigh.Front		R.Thigh.Rear		X.Shell.Lower.Thigh.Right		R.Knee.Lateral		R.Shank.Upper		R.Shank.Front		R.Shank.Rear		X.Shell.Lower.Shank.Right		R.Ankle.Lateral		R.Heel		R.Toe		L.Thigh.Upper		L.Thigh.Front		L.Thigh.Rear		X.Shell.Lower.Thigh.Left		L.Knee.Lateral		L.Shank.Upper		L.Shank.Front		L.Shank.Rear		X.Shell.Lower.Shank.Left		L.Ankle.Lateral		L.Heel		L.Toe		R.Troc		L.Troc		R.PSIS		L.ASIS		R.ASIS
			X1	Y1	Z1	X2	Y2	Z2	X3	Y3	Z3	X4	Y4	Z4	X5	Y5	Z5	X6	Y6	Z6	X7	Y7	Z7	X8	Y8	Z8	X9	Y9	Z9	X10	Y10	Z10	X11	Y11	Z11	X12	Y12	Z12	X13	Y13	Z13	X14	Y14	Z14	X15	Y15	Z15	X16	Y16	Z16	X17	Y17	Z17	X18	Y18	Z18	X19	Y19	Z19	X20	Y20	Z20	X21	Y21	Z21	X22	Y22	Z22	X23	Y23	Z23	X24	Y24	Z24	X25	Y25	Z25	X26	Y26	Z26	X27	Y27	Z27	X28	Y28	Z28	X29	Y29	Z29	X30	Y30	Z30	X31	Y31	Z31	X32	Y32	Z32	X33	Y33	Z33	X34	Y34	Z34	X35	Y35	Z35	X36	Y36	Z36	X37	Y37	Z37	X38	Y38	Z38	X39	Y39	Z39	X40	Y40	Z40	X41	Y41	Z41	X42	Y42	Z42	X43	Y43	Z43	X44	Y44	Z44

370	3.07500	-1705.18018	1484.58862	-41.10246	-1802.49792	1377.81604	-317.93851	-1704.01294	1492.88269	-405.28979	-1712.57520	1119.30164	16.37766	-1554.63892	915.24738	7.43438	-1589.93909	905.19183	71.83829	-1536.49707	835.77155	63.35077	-1705.94629	1129.75940	-471.32520	-1571.04504	929.62781	-510.67569	-1544.38342	929.27966	-442.95337	-1520.19702	860.03290	-493.03531	-1653.77344	1038.32605	-76.56126	-1774.08765	1024.56763	-225.02542	-1773.29944	1031.27930	-265.71274	-1652.04993	1040.27100	-372.33484	-1618.39233	693.63367	-40.29570	-1587.04871	655.42603	-57.21817	-1642.75537	656.22357	-31.13829	-1617.03687	622.38733	-49.48239	-1681.60242	517.45502	-59.78106	-1694.22729	368.34427	-13.38205	-1669.15747	325.23990	-39.46159	-1727.33105	332.36224	-23.17642	-1705.63513	292.16882	-34.73453	-1721.47144	68.46902	-83.80269	-1765.32471	31.11270	-133.90385	-1568.05542	33.08755	-83.83451	-1601.07642	692.64685	-392.00278	-1581.62878	644.20551	-367.13916	-1629.83496	656.02570	-405.90237	-1604.41211	621.82062	-391.82092	-1671.70581	505.99475	-368.53357	-1712.44714	305.13113	-405.88574	-1686.94250	279.88837	-385.48224	-1745.91882	268.42035	-393.04529	-1724.57751	236.28004	-392.82013	-1723.25928	71.80267	-346.10684	-1779.07056	32.56798	-297.33334	-1584.19763	37.07694	-340.27124	-1645.79163	879.69635	-38.14719	-1646.38916	894.51782	-410.77756	-1774.04858	1030.34436	-180.50818	-1588.23840	1001.83344	-330.00262	-1597.13538	1000.20380	-106.45281
371	3.08333	-1704.33203	1484.67322	-41.58645	-1801.89111	1377.94116	-318.21207	-1703.36755	1492.89392	-405.72491	-1712.33484	1119.32544	15.87862	-1554.05066	915.51562	7.10306	-1589.52783	905.25989	71.21259	-1536.19324	835.86920	62.87210	-1706.20435	1129.87341	-472.04636	-1571.05298	929.71008	-511.02435	-1544.51221	929.48389	-443.12256	-1520.10437	860.18005	-493.18866	-1653.58765	1038.36450	-76.97717	-1773.93164	1024.68506	-225.50951	-1772.96924	1031.35059	-266.27362	-1651.68091	1040.21106	-372.66644	-1618.25159	693.74402	-40.39332	-1586.94275	655.54816	-57.40647	-1642.51001	656.32343	-31.10919	-1616.79761	622.50586	-49.62416	-1681.33264	517.64203	-59.81834	-1693.93127	368.38669	-13.48402	-1668.84937	325.26627	-39.57236	-1727.03674	332.44080	-23.18940	-1705.38940	292.19858	-34.80814	-1721.53906	68.43555	-83.65552	-1765.40417	31.05727	-133.83417	-1568.17944	33.22098	-83.74683	-1600.44824	692.66699	-392.34326	-1580.82629	644.14508	-367.53271	-1629.17688	655.83118	-406.17795	-1603.75439	621.81146	-392.06873	-1670.75476	505.88492	-368.63132	-1711.72961	305.09378	-405.91199	-1686.43140	279.82941	-385.56534	-1745.43689	268.44995	-393.05447	-1724.14209	236.23752	-392.80524	-1723.25842	71.83077	-346.06161	-1779.10266	32.55495	-297.30298	-1584.36475	37.29920	-340.11993	-1645.66370	879.79150	-38.51396	-1646.08801	894.63654	-411.42642	-1773.96204	1030.45862	-181.00836	-1587.96936	1001.63293	-330.56467	-1596.16541	1000.34564	-106.76508
372	3.09167	-1703.49609	1484.71777	-41.99033	-1801.44897	1378.11621	-318.62585	-1702.79272	1492.95105	-406.00107	-1712.10571	1119.38806	15.43257	-1553.24768	915.79120	6.88044	-1589.15186	905.35535	70.76781	-1535.70117	836.00330	62.33073	-1706.54749	1130.13354	-472.84866	-1571.03503	929.80603	-511.38260	-1544.45728	929.64667	-443.33878	-1519.98462	860.33051	-493.35065	-1653.55457	1038.45618	-77.22688	-1773.62793	1024.79150	-226.14873	-1772.68591	1031.39856	-266.76410	-1651.44824	1040.10803	-373.16309	-1617.94165	693.85400	-40.62353	-1586.72583	655.65021	-57.60704	-1642.31775	656.39258	-31.16908	-1616.56750	622.57867	-49.82257	-1680.94873	517.75690	-60.02407	-1693.52625	368.49435	-13.61430	-1668.65344	325.26685	-39.78614	-1726.71375	332.49997	-23.25774	-1705.00427	292.24622	-34.95362	-1721.60535	68.38606	-83.49183	-1765.48376	31.03635	-133.73332	-1568.30322	33.39270	-83.61626	-1599.83252	692.61273	-392.66837	-1580.01746	644.20416	-368.06522	-1628.44580	655.67957	-406.46011	-1602.84998	621.81000	-392.41141	-1669.84338	505.81708	-368.74237	-1711.17786	305.03210	-405.94321	-1685.89099	279.78949	-385.54221	-1744.90344	268.47464	-393.02347	-1723.65869	236.19534	-392.78589	-1723.19202	71.81619	-346.04401	-1779.11780	32.53921	-297.25769	-1584.55615	37.49493	-340.01572	-1645.42712	879.89917	-38.90992	-1645.69983	894.60052	-411.95966	-1773.62207	1030.59875	-181.63454	-1587.70508	1001.59839	-331.10361	-1595.98584	1000.27722	-107.29188
373	3.10000	-1702.60303	1484.85022	-42.47072	-1800.86914	1378.24341	-318.91080	-1702.19019	1493.02441	-406.45764	-1711.86609	1119.40405	14.97742	-1552.54822	916.02435	6.43902	-1588.64661	905.42108	70.29648	-1535.15454	836.13306	61.79139	-1706.77722	1130.29114	-473.61398	-1570.93152	929.82452	-511.70218	-1544.93762	929.76538	-443.99008	-1519.89758	860.48328	-493.65115	-1653.36926	1038.49939	-77.65683	-1773.30212	1024.78320	-226.66571	-1772.27295	1031.47571	-267.46384	-1651.19153	1040.08289	-373.59064	-1617.68982	693.96735	-40.97684	-1586.40662	655.76300	-57.85072	-1642.15540	656.47888	-31.17441	-1616.34998	622.65875	-50.03302	-1680.71448	517.86469	-60.22208	-1693.12805	368.55481	-13.69691	-1668.39307	325.24142	-39.98796	-1726.26562	332.57138	-23.45553	-1704.73779	292.34436	-35.04409	-1721.64551	68.37355	-83.41035	-1765.53784	30.98787	-133.68694	-1568.49622	33.64002	-83.51709	-1599.11279	692.51288	-393.01205	-1579.34729	644.21039	-368.06491	-1627.65845	655.56738	-406.81204	-1602.18518	621.66766	-392.63297	-1668.98364	505.74103	-368.78055	-1710.53394	304.91794	-405.95731	-1685.31213	279.76584	-385.60339	-1744.42480	268.47595	-393.03769	-1723.26880	236.19922	-392.77707	-1723.18311	71.82608	-345.99280	-1779.15955	32.52430	-297.22684	-1584.72363	37.72397	-339.89661	-1645.04431	879.97919	-39.31815	-1645.35583	894.58057	-412.49261	-1773.34888	1030.64111	-182.13289	-1587.48181	1001.48584	-331.61179	-1595.99963	1000.30548	-108.07994
374	3.10833	-1701.67090	1484.92322	-42.94510	-1800.27515	1378.39453	-319.34836	-1701.45483	1493.04468	-406.99435	-1711.56787	1119.42493	14.55165	-1551.55017	916.45984	5.85327	-1588.19202	905.49420	69.69598	-1534.51599	836.28473	61.19538	-1707.11682	1130.35046	-474.49023	-1570.88965	929.88953	-512.29883	-1545.20752	930.00256	-444.63245	-1519.78882	860.64386	-493.92853	-1652.93616	1038.54797	-78.31387	-1772.82593	1024.84436	-227.45711	-1771.83142	1031.51672	-268.10397	-1651.01416	1040.11047	-374.30835	-1617.49658	694.08832	-41.40322	-1586.04980	655.80743	-58.31443	-1641.83997	656.65521	-31.42028	-1616.02502	622.76367	-50.35116	-1680.23560	517.93030	-60.46058	-1692.62842	368.66714	-13.80438	-1668.06750	325.32877	-40.08489	-1725.92444	332.64496	-23.57704	-1704.47498	292.38992	-35.21148	-1721.69751	68.35692	-83.23013	-1765.58557	30.96169	-133.61620	-1568.78979	33.91697	-83.32000	-1598.48621	692.32458	-393.29755	-1578.61743	644.19086	-368.53531	-1626.96814	655.44580	-407.01733	-1601.40076	621.63843	-392.83783	-1668.15942	505.68573	-368.93134	-1710.05994	304.82208	-405.95935	-1684.94531	279.60257	-385.43143	-1743.98682	268.44778	-393.08578	-1722.89685	236.14551	-392.74432	-1723.20056	71.83528	-345.93210	-1779.19104	32.50660	-297.18341	-1584.85803	37.91859	-339.86023	-1644.72253	880.00262	-39.74782	-1644.94373	894.39484	-412.98483	-1772.97095	1030.66663	-182.83278	-1587.21619	1001.39050	-332.04105	-1596.56091	1000.16266	-108.86906
375	3.11667	-1700.81543	1484.82520	-43.38144	-1799.75073	1378.53796	-319.68625	-1700.72827	1493.05127	-407.46094	-1711.10693	1119.40564	14.06360	-1550.58289	916.81573	5.23454	-1587.50574	905.52008	68.85218	-1533.67078	836.42712	60.55201	-1707.44763	1130.55273	-475.44028	-1571.12488	929.93811	-512.43823	-1544.63904	930.23584	-445.14630	-1519.77429	860.82520	-494.25473	-1652.56982	1038.59155	-79.07284	-1772.45923	1024.91174	-228.06293	-1771.41699	1031.58008	-268.77142	-1650.98328	1040.09644	-374.87399	-1617.13501	694.20392	-41.81560	-1585.71985	655.89240	-58.76479	-1641.52832	656.76575	-31.84071	-1615.66992	622.86029	-50.63384	-1679.76001	518.03406	-60.87717	-1692.37634	368.71439	-13.91562	-1667.61523	325.26572	-40.30228	-1725.61365	332.72968	-23.68333	-1704.08508	292.47208	-35.32361	-1721.76685	68.36513	-83.10875	-1765.63770	30.93172	-133.58342	-1569.09326	34.24033	-83.11341	-1597.71399	692.18286	-393.72458	-1577.79260	644.07202	-368.85172	-1626.34241	655.38849	-407.17685	-1600.68665	621.46332	-393.00470	-1667.41223	505.57419	-369.13742	-1709.49292	304.65616	-406.02072	-1684.48584	279.44424	-385.47031	-1743.50525	268.42032	-393.18961	-1722.55237	236.08562	-392.73428	-1723.17041	71.83312	-345.89001	-1779.23035	32.48293	-297.17838	-1585.00537	38.08105	-339.71927	-1644.43604	880.05109	-40.25076	-1644.33704	894.31036	-413.46167	-1772.60303	1030.66577	-183.52783	-1586.87756	1001.33142	-332.45599	-1596.36694	1000.17053	-109.24636
376	3.12500	-1699.82336	1484.79993	-44.00187	-1799.01038	1378.68127	-320.14813	-1700.03442	1493.11267	-408.02615	-1710.68274	1119.34619	13.67386	-1549.65759	917.22845	4.73893	-1586.78540	905.53522	68.08140	-1533.00220	836.63354	59.93842	-1707.61633	1130.70142	-476.20425	-1571.06860	929.97833	-513.42181	-1544.47498	930.51825	-445.73047	-1519.77478	860.99237	-494.65784	-1652.19751	1038.70764	-79.78709	-1771.91040	1024.94214	-228.77101	-1770.91187	1031.62915	-269.46402	-1650.82483	1040.09570	-375.79773	-1616.60107	694.35059	-42.37613	-1585.31079	655.99854	-59.27748	-1640.96204	656.90436	-32.27726	-1615.31543	622.96936	-50.89265	-1679.49780	518.06616	-61.28424	-1692.14648	368.78125	-14.05033	-1667.34131	325.37048	-40.61077	-1725.28699	332.82727	-23.75861	-1703.72351	292.55231	-35.46214	-1721.83228	68.36926	-83.07468	-1765.68604	30.90927	-133.57423	-1569.30872	34.48772	-83.09922	-1596.98096	692.11835	-393.95398	-1577.03320	644.04584	-369.27808	-1625.66113	655.24182	-407.59671	-1599.83875	621.39868	-393.32971	-1666.65564	505.39914	-369.31894	-1709.07288	304.56570	-406.07660	-1683.95288	279.34979	-385.44324	-1743.09277	268.41193	-393.30652	-1722.18567	236.02577	-392.80124	-1723.18457	71.83768	-345.86008	-1779.25989	32.45066	-297.13919	-1585.11951	38.27700	-339.72977	-1644.15796	880.11938	-40.74659	-1643.82788	894.20862	-413.98993	-1772.09106	1030.71570	-184.20421	-1586.32971	1001.33527	-333.00079	-1595.03699	1000.42230	-109.72640
